<?xml version="1.0" encoding="utf-8"?>
<!-- Svg Vector Icons : http://www.onlinewebfonts.com/icon -->
<!DOCTYPE svg PUBLIC "-//W3C//DTD SVG 1.1//EN" "http://www.w3.org/Graphics/SVG/1.1/DTD/svg11.dtd">
<svg version="1.1" xmlns="http://www.w3.org/2000/svg" xmlns:xlink="http://www.w3.org/1999/xlink" x="0px" y="0px" viewBox="0 0 1000 1000" enable-background="new 0 0 1000 1000" xml:space="preserve">
<metadata> Svg Vector Icons : http://www.onlinewebfonts.com/icon </metadata>
<g><g transform="translate(0.000000,511.000000) scale(0.100000,-0.100000)"><path d="M5190.8,4949.5c57.4-272.4,28.7-479.3-100.4-745.6c-122.9-251.9-229.4-385.1-710.8-893c-491.6-520.3-661.6-716.9-843.9-987.3c-415.8-612.4-598.1-1249.4-571.5-1988.9c10.2-284.7-2.1-295-168-129c-124.9,127-270.4,407.6-329.8,639.1c-65.5,254-45.1,641.1,43,858.2c43,104.5-254-73.7-460.9-274.5c-430.1-419.9-714.8-1056.9-778.3-1745.1c-65.5-684.1,133.1-1392.8,555.1-1980.7c67.6-94.2,116.7-176.2,110.6-182.3c-16.4-16.4-233.5,36.9-378.9,94.2c-219.2,88.1-309.3,147.5-479.3,315.4l-161.8,161.8l14.3-200.7c43-641.1,315.4-1255.6,747.6-1683.7c594-585.8,1548.5-927.9,2771.3-989.3l135.2-8.2l-120.8,129c-450.6,483.4-675.9,1153.2-594,1777.9c61.4,471.1,274.5,956.5,553,1259.7l84,92.2l-14.3-122.9c-28.7-213-12.3-600.1,30.7-800.9c98.3-444.5,305.2-811.1,557.1-991.4l67.6-49.2l-14.3,51.2c-77.9,282.7-96.3,600.1-45.1,862.3c16.4,81.9,67.6,278.6,112.7,436.3c145.4,499.8,153.6,788.6,30.7,1157.3c-57.3,170-215.1,483.4-325.7,653.4c-41,59.4-67.6,114.7-63.5,118.8c20.5,20.5,356.4-157.7,530.5-282.7c731.2-520.3,1136.8-1489.1,1093.8-2619.7c-24.6-606.3-178.2-1202.3-407.6-1558.7l-71.7-112.7l176.2,6.2c936.1,38.9,1630.4,288.8,2115.9,768.1c411.7,405.5,661.6,972.9,766,1736.9c71.7,514.1,41,1339.6-77.8,2085.1l-43,270.4l-49.2-147.5c-118.8-358.4-290.9-632.9-528.4-852.1c-120.9-108.6-329.8-245.8-348.2-225.3c-6.1,4.1,30.7,104.5,81.9,223.3c112.7,268.3,221.2,624.7,268.3,889c53.3,301.1,49.2,792.7-10.2,1071.2C8152.6,1914,7577.1,2592,6696.3,2970.9c-96.3,41-182.3,75.8-188.4,75.8s22.5-57.3,65.6-127c313.4-528.4,331.8-1022.1,45-1333.4c-182.3-198.7-458.8-233.5-755.8-96.3c-317.5,145.4-454.7,415.8-385.1,755.8c32.8,151.6,59.4,215.1,284.7,637c473.2,893,448.6,1489.1-75.8,1880.3c-114.7,84-344.1,202.8-460.9,239.6C5178.5,5017.1,5176.5,5015.1,5190.8,4949.5z"/></g></g>
</svg>